Coordinates
version=1
nRows=14
nColumns=36
inDegrees=yes

Units are S.I. units (second, meters, Newtons, ...)
If the header above contains a line with 'inDegrees', this indicates whether rotational values are in degrees (yes) or radians (no).

endheader
time	pelvis_tilt	pelvis_list	pelvis_rotation	pelvis_tx	pelvis_ty	pelvis_tz	hip_flexion_r	hip_adduction_r	hip_rotation_r	knee_angle_r	knee_angle_r_beta	ankle_angle_r	subtalar_angle_r	mtp_angle_r	hip_flexion_l	hip_adduction_l	hip_rotation_l	knee_angle_l	knee_angle_l_beta	ankle_angle_l	subtalar_angle_l	mtp_angle_l	lumbar_extension	lumbar_bending	lumbar_rotation	arm_flex_r	arm_add_r	arm_rot_r	elbow_flex_r	pro_sup_r	arm_flex_l	arm_add_l	arm_rot_l	elbow_flex_l	pro_sup_l
     13.95000000	    -32.48093037	      0.72634273	      0.01992720	     -0.36154732	      0.62294002	     -0.59058634	    102.55739626	     -6.36073785	     -0.18114427	     85.16846498	      1.48647013	     17.77994380	     -0.54924333	     -7.49999987	    101.63081217	     -5.92966633	      0.52315828	     83.07209220	      1.44988153	     16.91620492	     -6.12564783	     -7.49999987	    -47.63478625	      0.04753058	     -3.14507193	     81.40662321	    -25.28706737	      7.17258384	     89.51501651	     98.74339278	     86.20106264	    -25.06493463	     11.58775125	     81.29823459	     92.60512546
     13.96000000	    -32.24157242	      0.79139097	      0.00853646	     -0.36439379	      0.61958069	     -0.59063754	    102.99457674	     -6.46692277	     -0.18538061	     85.65200295	      1.49490946	     17.76990080	     -0.53826219	     -7.49999987	    102.02292118	     -6.07566412	      0.40669495	     83.55421547	      1.45829616	     16.87018224	     -6.09911954	     -7.49999987	    -47.79277929	     -0.10134837	     -3.25999273	     81.51445166	    -25.29618347	      7.11417027	     89.42991765	     98.72618873	     86.24236041	    -24.86716194	     11.57681301	     81.20094879	     92.58790199
     13.97000000	    -31.95737871	      0.92289589	     -0.00591757	     -0.36722975	      0.61622264	     -0.59056067	    103.42493906	     -6.52600501	     -0.09037186	     86.17578437	      1.50405117	     17.72818484	     -0.51645915	     -7.49999987	    102.36589294	     -6.28102654	      0.18521187	     84.05803201	      1.46708942	     16.77531530	     -6.00316863	     -7.49999987	    -47.88734904	     -0.29736821	     -3.34411835	     81.50460503	    -25.36114835	      7.06058859	     89.29175933	     98.70455188	     86.13907153	    -24.72103026	     11.55914605	     81.03622373	     92.55941467
     13.98000000	    -31.63164505	      1.32209351	     -0.00415555	     -0.37014149	      0.61294187	     -0.59045991	    103.91269569	     -6.53474252	      0.36965526	     86.70875458	      1.51335326	     17.53785315	     -0.34759621	     -7.49999987	    102.55188248	     -6.56810480	     -0.42487555	     84.45444951	      1.47400821	     16.63163216	     -5.57266529	     -7.49999987	    -47.93125933	     -0.67846332	     -3.71181640	     81.41302466	    -25.31968000	      7.12935453	     89.04403042	     98.65738075	     85.96522452	    -24.66603724	     11.43753224	     80.70977512	     92.48510691
     13.99000000	    -31.21468037	      1.39303357	      0.04772290	     -0.37300024	      0.60971717	     -0.59076425	    104.21375126	     -6.71672926	      0.40333509	     87.24073056	      1.52263799	     17.50699245	     -0.34234887	     -7.49999987	    102.76839448	     -6.74165932	     -0.71345243	     84.92793945	      1.48227217	     16.62198377	     -5.51082866	     -7.49999987	    -48.09258841	     -0.64039063	     -3.81375329	     81.55399278	    -25.31174930	      7.13506553	     89.00696209	     98.64901137	     85.75739011	    -24.70537497	     11.38255238	     80.63975364	     92.46703791
     14.00000000	    -30.76699902	      1.49378012	      0.14155112	     -0.37572583	      0.60643101	     -0.59113437	    104.49651091	     -6.94118270	      0.49350302	     87.82160454	      1.53277615	     17.45190519	     -0.32042106	     -7.49999987	    102.95011817	     -6.82812648	     -0.94611950	     85.42785740	      1.49099738	     16.58082226	     -5.40738506	     -7.49999987	    -48.09032677	     -0.73913123	     -4.01890298	     81.41465687	    -25.34934938	      7.23455079	     88.83530101	     98.63414757	     85.41223675	    -24.54857123	     11.27661479	     80.53660127	     92.43917395
     14.01000000	    -30.33802711	      1.64399087	      0.20702839	     -0.37842877	      0.60309381	     -0.59147220	    104.83758117	     -7.12274668	      0.63410085	     88.42360241	      1.54328300	     17.38640775	     -0.28939992	     -7.49999987	    103.13589830	     -6.88085548	     -1.15371815	     85.92244851	      1.49962963	     16.53515609	     -5.28100871	     -7.49999987	    -47.95799215	     -0.91819795	     -4.14358724	     81.07456506	    -25.45915230	      7.30849744	     88.57646442	     98.60588585	     84.95483206	    -24.27023088	     11.11803763	     80.36412923	     92.39840111
     14.02000000	    -29.96604895	      1.91395825	      0.18662781	     -0.38128735	      0.59987769	     -0.59157932	    105.22400600	     -7.12883386	      0.94850281	     88.89272334	      1.55147070	     17.20078970	     -0.11541726	     -7.49999987	    103.26434990	     -7.07509035	     -1.52749934	     86.28148004	      1.50589591	     16.71306801	     -4.84217788	     -7.49999987	    -47.68231020	     -1.25910191	     -4.16137647	     80.65180963	    -25.65225367	      7.24396945	     88.35691011	     98.50037890	     84.33756073	    -23.52931000	     10.34417190	     79.89065924	     92.24987482
     14.03000000	    -29.33284530	      1.86996533	      0.09264832	     -0.38403317	      0.59703946	     -0.59143592	    105.22094037	     -7.08861188	      0.88348190	     89.36991415	      1.55979925	     17.18340879	     -0.15114810	     -7.49999987	    103.27103159	     -7.36617919	     -1.63359090	     86.79472111	      1.51485366	     16.70156160	     -4.83712882	     -7.49999987	    -47.73007579	     -1.32759956	     -4.07118608	     80.45824397	    -25.69053519	      7.25964594	     88.29957405	     98.48739385	     83.88635064	    -23.58809986	     10.32578415	     79.82480156	     92.23698726
     14.04000000	    -28.63532984	      1.83023346	     -0.04267960	     -0.38679214	      0.59425716	     -0.59126826	    105.15716453	     -7.00248672	      0.82311952	     89.82778050	      1.56779053	     17.14053980	     -0.18730785	     -7.49999987	    103.23601029	     -7.66446339	     -1.65857248	     87.33164546	      1.52422475	     16.66887829	     -4.80529803	     -7.49999987	    -47.74955981	     -1.41945380	     -3.96242466	     80.25603437	    -25.68158030	      7.28989536	     88.21256545	     98.47552786	     83.34943910	    -23.62868093	     10.28163291	     79.74336959	     92.22031424
     14.05000000	    -27.88133058	      1.61623022	     -0.32341960	     -0.38962366	      0.59153587	     -0.59091213	    104.95340769	     -6.73450401	      0.58403131	     90.18374458	      1.57400327	     16.96492511	     -0.33027340	     -7.49999987	    103.26984040	     -8.09500366	     -1.41254979	     87.99303042	      1.53576810	     16.69847655	     -4.44408177	     -7.49999987	    -47.74916980	     -1.44487076	     -3.69440411	     80.15837168	    -25.51552198	      7.39664785	     87.85014646	     98.41547364	     82.69616705	    -23.58006933	      9.75279583	     79.71908790	     92.15146820
     14.06000000	    -27.12928886	      1.59098741	     -0.34682531	     -0.39246563	      0.58898482	     -0.59119988	    104.83165131	     -6.76084331	      0.62693666	     90.62138281	      1.58164150	     16.88759350	     -0.37538846	     -7.49999987	    103.12753878	     -8.06060955	     -1.27981594	     88.41223041	      1.54308452	     16.65436268	     -4.42105025	     -7.49999987	    -47.68993820	     -1.44321398	     -3.65833278	     79.83855428	    -25.55563548	      7.45466971	     87.85662408	     98.41238058	     82.04113870	    -23.66017551	      9.74326729	     79.63738054	     92.13761541
     14.07000000	    -26.23702804	      1.35444561	     -0.44546321	     -0.39525987	      0.58665148	     -0.59135828	    104.49000891	     -6.71405979	      0.39704081	     91.03992137	      1.58894638	     16.60139651	     -0.62432525	     -7.49999987	    102.97692221	     -8.16958898	     -1.02085272	     89.00342674	      1.55340284	     16.64369047	     -4.32026617	     -7.49999987	    -47.75635835	     -1.26263087	     -3.53470086	     79.76472754	    -25.39747469	      7.67559449	     87.70950070	     98.36344442	     81.28425946	    -23.53651925	      8.92489082	     79.69671777	     92.07379964
     14.08000000	    -25.38692339	      1.19626520	     -0.52792717	     -0.39808547	      0.58420514	     -0.59159262	    104.21843854	     -6.66244721	      0.28706702	     91.44754479	      1.59606075	     16.41854816	     -0.86768196	     -7.49999987	    102.82711755	     -8.20339209	     -0.78862044	     89.52872699	      1.56257106	     16.55258996	     -4.34274671	     -7.49999987	    -47.66412042	     -1.15827646	     -3.42748159	     79.49372084	    -25.26195051	      7.74945267	     87.58559422	     98.31077080	     80.45801657	    -23.49052369	      8.44078678	     79.74446288	     92.02289396
